inDegrees=no
num_controls=7
num_derivatives=13
num_iterations=73
num_multipliers=7
num_parameters=0
num_slacks=7
num_states=26
objective=0.333182
objective_accelerations=0.037783
objective_balance=0.001360
objective_effort=0.027710
objective_height=0.264912
objective_ligament=0.001417
solver_duration=758.916008
status=Solve_Succeeded
success=true
DataType=double
version=3
OpenSimVersion=4.5
endheader
time	/jointset/ground_pelvis/pelvis_tilt/value	/jointset/ground_pelvis/pelvis_tx/value	/jointset/ground_pelvis/pelvis_ty/value	/jointset/hip_r/hip_flexion_r/value	/jointset/hip_r/hip_adduction_r/value	/jointset/hip_r/hip_rotation_r/value	/jointset/back/lumbar_extension/value	/jointset/patellofemoral_r/patellar_flexion_r/value	/jointset/knee_r/knee_flexion_r/value	/jointset/knee_r/knee_adduction_r/value	/jointset/knee_r/knee_rotation_r/value	/jointset/ankle_r/ankle_angle_r/value	/jointset/subtalar_r/subtalar_angle_r/value	/jointset/ground_pelvis/pelvis_tilt/speed	/jointset/ground_pelvis/pelvis_tx/speed	/jointset/ground_pelvis/pelvis_ty/speed	/jointset/hip_r/hip_flexion_r/speed	/jointset/hip_r/hip_adduction_r/speed	/jointset/hip_r/hip_rotation_r/speed	/jointset/back/lumbar_extension/speed	/jointset/patellofemoral_r/patellar_flexion_r/speed	/jointset/knee_r/knee_flexion_r/speed	/jointset/knee_r/knee_adduction_r/speed	/jointset/knee_r/knee_rotation_r/speed	/jointset/ankle_r/ankle_angle_r/speed	/jointset/subtalar_r/subtalar_angle_r/speed	/forceset/tau_hip_flexion_r	/forceset/tau_hip_adduction_r	/forceset/tau_hip_rotation_r	/forceset/tau_knee_flexion_r	/forceset/tau_ankle_angle_r	/forceset/tau_subtalar_angle_r	/forceset/tau_lumbar_extension	lambda_cid13_p0	lambda_cid14_p0	lambda_cid14_p1	lambda_cid14_p2	lambda_cid14_p3	lambda_cid14_p4	lambda_cid14_p5	/jointset/ground_pelvis/pelvis_tilt/accel	/jointset/ground_pelvis/pelvis_tx/accel	/jointset/ground_pelvis/pelvis_ty/accel	/jointset/hip_r/hip_flexion_r/accel	/jointset/hip_r/hip_adduction_r/accel	/jointset/hip_r/hip_rotation_r/accel	/jointset/back/lumbar_extension/accel	/jointset/patellofemoral_r/patellar_flexion_r/accel	/jointset/knee_r/knee_flexion_r/accel	/jointset/knee_r/knee_adduction_r/accel	/jointset/knee_r/knee_rotation_r/accel	/jointset/ankle_r/ankle_angle_r/accel	/jointset/subtalar_r/subtalar_angle_r/accel	gamma_cid13_p0	gamma_cid14_p0	gamma_cid14_p1	gamma_cid14_p2	gamma_cid14_p3	gamma_cid14_p4	gamma_cid14_p5
1	-0.290520933948747	-0.0114547189257017	0.6224871552998034	1.503986034496623	-0.2389216285919979	-0.0822982912282967	-0.7853981266774951	1.530003849456023	1.530003849456019	-0.1745116491340079	0.1738837644905324	0.4362370605640423	0.1744955216674917	0.06998361127702987	0.006408758416523391	0.01697719728638871	-0.104945442072144	-0.001473204724835861	8.367664146147998e-05	5.084432275333196e-05	-0.02008567063825828	-0.02008567063825813	0.007596795932433569	0.0002278844715132737	0.01444886001973647	0.004627239269953099	-0.3713305535340806	0.04700959507097036	0.006572970370437903	-0.436897438379996	-0.04476786236047071	0.000168158415916119	0.3789344074519148	-0.04080400592125506	-66.98129896411839	-16.4297629792128	8.495318819288334	8.406847248156918	-777.1422444247822	53.15142321801404	1.432535371454704	0.1631030680459838	1.934757799448891	-5.845504852431885	0.2240307743725046	-0.3446783765037362	0.007757664595971928	-5.21022121188644	-5.210221211886428	1.042357186357773	0.0152894667541467	-0.9903195012219509	-0.0764407809009023	2.216514829895976e-09	3.468503088453101e-09	1.75032943387961e-08	1.653655385765049e-08	-3.03811809463075e-09	-5.276965502405292e-09	3.573134400227902e-08
1.01	-0.2897502582332409	-0.01138234267114279	0.6227534629902853	1.502645293128722	-0.2389252959033866	-0.0823118792551369	-0.7853951217263209	1.529543152779221	1.529543152779219	-0.1743806902377662	0.1738866226537275	0.4363322340159919	0.1745377450230416	0.08414057204272148	0.008083846754672068	0.03627679728590329	-0.1631951543637055	0.0007308033878680863	-0.002788416667145444	0.0006837140068585854	-0.07202921809391792	-0.07202921809391782	0.01861209032862024	0.000350559088657462	0.004611874612496843	0.003813323196887309	-0.3718806562437325	0.04703622565928244	0.006622611802368381	-0.4366697488771853	-0.04506452934289795	0.0001906430507704163	0.379737154146672	-0.04079770772379418	-67.0870837508207	-16.43131618457633	8.487338118245237	8.229801174438284	-777.4748319571897	53.1426805101325	1.405634844245104	0.1723135461400917	1.926427048221259	-5.813550638038715	0.2172525794559088	-0.256540739608924	0.1110868332324655	-5.182756092802918	-5.182756092802908	1.133680477876956	0.01179448992970192	-0.9764814644724725	-0.08446833115855236	7.816573333869035e-09	1.139656370270222e-08	5.051889427340063e-08	5.956915206073992e-08	-6.512349102332066e-09	-1.254344902148876e-08	1.1173110573283e-07
1.02	-0.2888383412270544	-0.01129269516731412	0.623212539870366	1.500722285393802	-0.2389071897836997	-0.08235380140138238	-0.7853817810356585	1.528563753711784	1.528563753711784	-0.1741390654152388	0.1738909151692377	0.4363298189331512	0.1745717089557312	0.09823186941316217	0.009863008270476219	0.05553103520615385	-0.2213987154760821	0.002881481490037339	-0.005583147238543508	0.002117992207546058	-0.1238261487654649	-0.1238261487654649	0.02972998118992096	0.0005147549352069856	-0.0050688469546432	0.002975354697856421	-0.3724307589533768	0.04706285624758787	0.006672253234342298	-0.4364420593743711	-0.0453611963253293	0.0002131276856091657	0.3805399008414356	-0.04079783037720344	-67.19984607161048	-16.42821537889267	8.471903497959696	8.050100748030038	-777.9288199476676	53.17397987137437	1.419402692404521	0.1839177035770848	1.925685383596088	-5.836274616594922	0.2133647722655643	-0.3292058290619685	0.1680393679122961	-5.180897855063906	-5.180897855063905	1.062876479380575	0.02359371263521293	-0.9590667332020198	-0.08125126609391649	1.415287518613914e-08	2.088747944929538e-08	8.343572197196508e-08	1.062078952673887e-07	-1.226950363329356e-08	-1.983765441148383e-08	1.933040719853531e-07
1.03	-0.2877861136022596	-0.01118478976157784	0.623863872709145	1.498217906966627	-0.2388678031980309	-0.08242333055932305	-0.7853499339863598	1.527066988255654	1.527066988255652	-0.1737857967451214	0.1738970050282868	0.4362310715494244	0.1745970930753722	0.1121742473267925	0.01173012190574503	0.07472194741421803	-0.2794250063077759	0.004991136418852723	-0.008311172597168952	0.004402191337161202	-0.1755152424531348	-0.175515242453135	0.04093907479483209	0.000703755516418553	-0.01468502902544599	0.002089812560642679	-0.3726746844251256	0.04712796671086259	0.006788658606315117	-0.4359977302613738	-0.04575935982290162	0.0002207035507701842	0.3811020114367056	-0.04081606974990676	-67.3326813995982	-16.43136857724865	8.453199534199539	8.002387189509966	-778.1017798034441	53.17117527008416	1.375750069432031	0.1899119028467921	1.913750898458397	-5.778006139277209	0.2090803390171299	-0.24286159926973	0.2812262381555248	-5.161164262264529	-5.161164262264544	1.15221955725913	0.01667539047212488	-0.9635532427001471	-0.09391779298046077	2.049668972563677e-08	3.039434269723899e-08	1.163515417905699e-07	1.52883435872033e-07	-1.804995330224751e-08	-2.713214267771269e-08	2.749339076717739e-07
1.04	-0.286595643252611	-0.01105785247761975	0.6247067060218141	1.495134825666569	-0.2388074571659075	-0.08251979211285632	-0.7852907217352281	1.525053682035317	1.525053682035318	-0.1733199783877175	0.1739050093250663	0.4360360304852517	0.1746132793525521	0.125880414384012	0.01366938391483572	0.09383112998414864	-0.337139290052292	0.00707337078077476	-0.01096962635607147	0.007591032573549684	-0.2271343016066446	-0.227134301606645	0.05223991864825379	0.0008976424819494453	-0.02432758304347837	0.001135786205614953	-0.3729186098968802	0.04719307717413004	0.006905063978341864	-0.435553401148372	-0.04615752332047574	0.000228279415915419	0.3816641220319696	-0.04084068350595323	-67.47250203998711	-16.429828966305	8.426989589602989	7.950342145011244	-778.3977364152206	53.2083950216999	1.372160521122366	0.1983473783414699	1.909339455969374	-5.773873199159385	0.2078806588868919	-0.3152915091173873	0.3489677892669542	-5.166890948231877	-5.166890948231873	1.081226529082684	0.02457098949907871	-0.964341122647919	-0.09494810965670814	2.62935980592348e-08	3.969090192657043e-08	1.483088816437837e-07	1.978734330102617e-07	-2.431441935027576e-08	-3.291470405267119e-08	3.515215326196491e-07
1.05	-0.2852695097059131	-0.01091114882919112	0.6257401048235508	1.49147660491206	-0.2387264335642036	-0.08264263880167347	-0.7851947307418738	1.522524660879341	1.522524660879341	-0.1727408721246843	0.1739149760297598	0.4357443356465065	0.1746195233134581	0.1392817670526258	0.01568464739067379	0.1128229626750209	-0.3944051608975871	0.009126371931640783	-0.01359518069812412	0.0117986391615847	-0.2786453022762873	-0.2786453022762873	0.06358605189201007	0.001094510488001514	-0.03402558872398518	9.607283581924232e-05	-0.372933300022996	0.04725898405138535	0.007074695822621567	-0.4347738018740894	-0.04655297567445093	0.0002225114196723749	0.3820877138808941	-0.04087468590244562	-67.58748870009177	-16.42590924736817	8.396029178359438	7.893016286727677	-778.3234292023337	53.19641406634105	1.314452742290033	0.2051048929613371	1.890247234490131	-5.687980160774465	0.2032940352445137	-0.2354875314162967	0.4853780531885821	-5.139517002523958	-5.139517002523891	1.162007041312934	0.01713180866503464	-0.9746597214308558	-0.1109658459094179	3.207341557389847e-08	4.898088915532024e-08	1.80236268998079e-07	2.42810756915165e-07	-3.059401091015008e-08	-3.865001771227749e-08	4.279515884819448e-07
